<?xml version="1.0" standalone="no"?>
<!DOCTYPE svg PUBLIC "-//W3C//DTD SVG 20010904//EN"
 "http://www.w3.org/TR/2001/REC-SVG-20010904/DTD/svg10.dtd">
<svg version="1.0" xmlns="http://www.w3.org/2000/svg"
 width="926.000000pt" height="1280.000000pt" viewBox="0 0 926.000000 1280.000000"
 preserveAspectRatio="xMidYMid meet">
<metadata>
Created by potrace 1.15, written by Peter Selinger 2001-2017
</metadata>
<g transform="translate(0.000000,1280.000000) scale(0.100000,-0.100000)"
fill="#000000" stroke="none">
<path d="M5969 12795 c-1 -3 -2 -9 -3 -15 0 -5 -12 -17 -26 -27 l-25 -17 20
25 c15 18 12 17 -13 -5 -33 -31 -45 -58 -14 -35 15 11 15 11 4 -1 -7 -8 -18
-15 -24 -15 -6 0 -13 -6 -16 -14 -3 -9 0 -11 9 -6 8 5 11 4 6 -1 -5 -5 -12 -9
-15 -9 -11 -1 -96 -89 -97 -100 0 -15 -47 -22 -85 -13 -54 12 -107 10 -145 -6
-42 -18 -46 -13 -7 8 15 8 22 15 16 16 -22 0 -65 -43 -81 -81 -11 -28 -21 -39
-37 -40 -16 0 -13 -4 14 -15 20 -8 24 -12 10 -9 -64 15 -140 17 -175 5 -21 -7
-59 -31 -84 -53 l-46 -41 35 38 c19 21 53 47 75 57 22 10 33 19 25 19 -40 0
-152 -101 -155 -140 -2 -25 -34 -60 -54 -60 -19 1 -55 26 -57 40 -1 6 -2 13
-3 17 -2 13 -44 -33 -62 -69 -22 -44 -24 -52 -6 -42 6 4 -1 -8 -18 -26 -39
-42 -83 -60 -142 -58 l-48 1 55 7 55 7 -53 1 c-46 2 -54 -1 -61 -20 -5 -13
-12 -22 -17 -20 -10 4 -32 -60 -33 -96 -1 -16 3 -21 12 -16 6 4 3 -3 -8 -15
-13 -13 -43 -25 -80 -32 -33 -6 -71 -13 -83 -15 -20 -4 -22 -7 -11 -20 13 -16
62 -44 76 -44 4 1 -9 10 -29 21 -61 32 -44 31 25 -1 68 -33 137 -39 157 -15 6
8 17 13 22 12 6 -1 13 4 16 12 3 9 0 11 -8 6 -9 -6 -9 -3 -1 14 14 25 23 28
14 4 -3 -10 8 -2 25 17 25 27 33 32 40 21 6 -8 12 -9 16 -3 11 18 -26 23 -53
7 l-26 -16 24 20 c26 23 39 25 61 11 12 -8 8 -16 -24 -49 -22 -22 -43 -39 -49
-38 -5 1 -12 -4 -15 -12 -3 -10 0 -11 9 -5 12 7 12 5 0 -9 -7 -9 -18 -14 -24
-10 -6 4 -8 0 -4 -9 6 -17 -29 -55 -78 -82 -30 -17 -30 -17 -5 1 14 10 38 31
55 46 l30 29 -35 -24 c-150 -103 -191 -152 -189 -224 l2 -39 6 46 c4 25 14 58
24 72 25 38 31 33 7 -5 -12 -19 -20 -51 -20 -75 0 -25 -6 -45 -14 -50 -12 -7
-46 -64 -46 -78 0 -3 6 -3 13 1 7 4 9 3 4 -2 -5 -5 -14 -9 -19 -9 -6 0 -13 -6
-16 -14 -3 -9 0 -11 9 -5 12 6 12 5 1 -8 -10 -13 -25 -15 -67 -11 -29 3 -68 1
-87 -6 -30 -10 -31 -9 -14 4 11 8 15 15 9 15 -21 0 -41 -37 -46 -90 -4 -36 -3
-48 3 -35 13 29 12 -1 -2 -46 -6 -22 -17 -39 -24 -39 -6 0 -15 -7 -18 -16 -10
-26 -7 -29 9 -8 14 18 15 17 4 -8 -7 -15 -15 -25 -20 -23 -4 3 -10 1 -14 -5
-6 -9 -1 -12 35 -14 8 -1 25 11 38 25 26 32 29 47 5 28 -10 -7 -7 -1 6 14 14
15 32 27 40 26 10 0 8 -4 -6 -9 -13 -5 -23 -12 -23 -16 0 -3 7 -4 15 0 8 3 15
1 15 -5 0 -6 4 -8 9 -5 10 7 21 -17 20 -42 0 -14 -2 -13 -9 3 -8 18 -9 18 -9
-6 -1 -14 -7 -31 -13 -38 -11 -10 -9 -11 7 -6 14 5 13 2 -5 -9 -35 -21 -70
-20 -127 5 -54 24 -125 41 -117 28 3 -5 -2 -9 -10 -9 -9 0 -16 -5 -16 -11 0
-5 4 -7 10 -4 7 4 7 -3 0 -20 -13 -34 -13 -165 0 -165 6 0 10 11 10 24 0 14 4
27 8 30 5 3 6 -9 4 -27 -6 -44 4 -31 12 16 6 31 5 37 -6 31 -10 -6 -10 -4 1 9
19 23 30 22 84 -13 41 -26 46 -33 37 -49 -5 -11 -10 -40 -10 -64 0 -43 -1 -44
-27 -39 -16 2 -25 2 -22 -2 3 -3 18 -7 32 -8 15 -1 27 -6 27 -10 0 -11 2 -11
-130 22 -109 28 -170 35 -170 20 0 -4 14 -19 30 -35 24 -23 30 -38 31 -74 l2
-46 7 40 7 40 2 -35 c1 -24 -5 -41 -19 -53 -20 -17 -28 -43 -10 -32 6 3 7 -1
4 -9 -3 -9 -10 -14 -14 -11 -9 6 -23 -25 -15 -33 3 -3 5 1 5 8 0 7 2 11 5 8 3
-3 -2 -25 -10 -49 -9 -24 -15 -58 -13 -76 1 -18 -1 -36 -6 -40 -4 -4 -38 -8
-75 -8 -43 0 -74 -5 -84 -14 -21 -17 -22 -70 -3 -116 8 -19 13 -35 10 -35 -3
0 -11 15 -19 33 -8 17 -14 26 -15 19 0 -22 30 -73 40 -67 6 3 7 0 5 -8 -3 -7
5 -22 17 -33 23 -19 23 -19 8 1 -14 18 -14 19 2 6 10 -7 15 -18 11 -24 -4 -6
0 -8 9 -5 8 4 21 2 29 -3 11 -7 10 -9 -6 -9 -37 0 -96 -21 -116 -41 -10 -10
-19 -15 -19 -11 0 15 34 40 70 51 l35 11 -35 -5 c-35 -5 -80 -39 -80 -60 0
-12 118 -120 131 -120 4 0 11 -4 16 -9 5 -5 3 -6 -4 -2 -10 5 -13 -4 -13 -34
0 -30 3 -39 13 -35 6 4 1 -3 -12 -15 -20 -17 -32 -20 -68 -14 -42 6 -43 6 -43
-22 1 -16 9 -54 20 -84 13 -38 14 -49 4 -36 -19 26 -18 13 1 -25 9 -17 21 -27
27 -23 7 4 8 3 4 -4 -4 -7 -36 -13 -74 -14 l-67 -2 85 -6 85 -6 -83 -2 c-46
-1 -93 -7 -105 -13 -21 -10 -21 -10 -3 5 11 9 15 16 9 16 -15 0 -43 -34 -43
-54 0 -18 96 -126 112 -126 5 0 6 5 2 11 -4 8 0 8 15 0 25 -14 28 -23 4 -14
-11 5 -14 3 -9 -6 5 -7 17 -11 27 -8 11 3 17 1 13 -4 -3 -5 -11 -9 -19 -9 -7
0 -28 -12 -47 -26 l-33 -26 33 31 c18 17 29 31 24 31 -14 0 -72 -65 -72 -80 0
-12 2 -12 9 -2 5 8 8 -6 8 -35 1 -36 -2 -43 -8 -28 -8 18 -8 17 -6 -5 1 -14 7
-25 14 -25 6 0 15 -4 20 -9 5 -5 3 -6 -4 -2 -23 13 -13 -10 14 -35 25 -22 26
-22 9 -1 -29 34 -14 26 20 -10 16 -18 20 -26 10 -18 -18 14 -19 13 -13 -2 4
-12 -5 -23 -38 -42 -24 -14 -47 -26 -52 -26 -4 0 15 14 42 30 28 16 46 30 41
30 -5 0 -28 -11 -52 -25 -39 -23 -42 -28 -38 -59 2 -19 8 -46 14 -60 10 -27
13 -25 -55 -39 -14 -3 -10 -5 10 -7 17 -1 39 -6 50 -11 16 -7 12 -8 -14 -4
-18 3 -50 5 -70 6 -30 0 -33 2 -16 10 l20 9 -20 -3 c-16 -2 -20 -10 -20 -39 0
-20 -4 -34 -9 -31 -5 3 -7 0 -4 -8 3 -8 10 -14 16 -14 5 0 14 -4 19 -9 5 -5 2
-6 -6 -1 -9 5 -12 3 -9 -6 3 -8 10 -14 16 -14 5 0 14 -4 19 -9 5 -5 3 -6 -4
-2 -22 12 -14 -10 9 -30 22 -19 23 -19 8 1 -15 20 -14 20 8 1 23 -20 30 -32
12 -21 -6 3 -10 1 -10 -4 0 -6 -7 -11 -16 -11 -8 0 -29 -13 -45 -29 -21 -22
-29 -38 -28 -63 l1 -33 8 39 c9 50 41 76 89 75 36 -1 36 -2 -8 -9 -57 -9 -74
-32 -67 -90 4 -33 3 -41 -5 -30 -8 12 -10 12 -7 -5 2 -11 8 -20 15 -20 6 0 15
-4 20 -9 5 -5 3 -6 -4 -2 -25 14 -12 -11 19 -40 l33 -29 -25 30 c-23 27 -22
27 15 -5 l40 -35 -40 -23 c-22 -13 -46 -28 -52 -34 -7 -6 -13 -8 -13 -4 0 4
20 19 45 35 24 15 42 31 39 34 -6 6 -32 -13 -82 -60 -32 -31 -40 -68 -15 -68
6 0 15 -4 20 -9 5 -5 3 -6 -4 -2 -7 4 -13 3 -13 -1 0 -12 75 -82 130 -122 l45
-33 -50 44 c-99 86 -108 98 -28 36 76 -59 94 -83 63 -83 -7 0 -15 -6 -18 -14
-3 -9 0 -11 9 -6 8 5 5 -1 -5 -13 -21 -25 -36 -31 -16 -7 18 22 6 18 -36 -10
-38 -26 -39 -33 -1 -14 21 10 21 10 3 -5 -11 -9 -28 -16 -37 -16 -27 0 -34
-21 -10 -27 11 -3 18 -10 14 -16 -3 -6 -1 -7 5 -3 13 8 88 -10 96 -23 3 -5
-13 -2 -35 6 -23 7 -44 12 -46 9 -3 -3 7 -8 23 -12 34 -9 84 -34 67 -34 -16 0
-17 -32 -1 -48 7 -7 21 -12 32 -11 18 1 17 2 -4 8 -24 7 -23 8 11 14 21 4 42
13 47 20 6 7 46 82 89 167 43 85 95 180 116 211 70 106 448 456 637 591 36 25
114 76 173 112 l108 65 37 -21 c20 -12 55 -38 77 -58 47 -44 81 -63 96 -55 5
4 21 4 35 1 22 -6 24 -11 24 -61 0 -52 3 -57 55 -116 30 -34 55 -66 55 -72 0
-6 -8 -38 -17 -70 l-17 -60 68 -64 68 -65 -20 -21 c-39 -42 -82 -121 -82 -149
0 -48 24 -90 93 -166 37 -39 67 -76 67 -82 0 -5 -13 -19 -30 -32 -16 -12 -30
-29 -30 -38 0 -22 50 -97 89 -134 30 -28 31 -34 31 -109 l0 -79 61 -66 c68
-74 115 -161 125 -231 5 -40 38 -174 51 -206 2 -7 -19 -17 -54 -24 -63 -14
-103 -35 -103 -54 0 -6 20 -38 45 -70 89 -113 111 -183 80 -263 -17 -44 -17
-116 -1 -155 5 -10 -7 -25 -38 -47 l-45 -33 45 -74 45 -74 -26 -50 c-21 -43
-30 -51 -53 -51 -32 0 -52 -16 -52 -43 0 -23 -18 -19 -120 30 -67 32 -94 55
-253 214 -98 98 -175 173 -171 166 26 -45 152 -195 219 -261 110 -109 174
-149 317 -199 15 -5 16 -11 7 -36 -15 -41 -59 -66 -153 -85 -99 -21 -127 -36
-188 -99 l-48 -50 -323 122 c-177 68 -349 132 -382 144 -56 19 -70 29 -78 50
-5 15 -192 -52 -298 -107 -102 -52 -104 -53 -101 -86 6 -73 175 -376 347 -622
l74 -106 -92 -75 c-138 -113 -212 -194 -252 -279 -35 -74 -69 -188 -63 -212 3
-13 191 -186 203 -186 3 0 5 15 5 33 0 53 28 153 59 215 31 61 133 177 224
255 l56 48 60 -49 c72 -58 199 -126 339 -181 206 -82 294 -142 473 -320 144
-144 179 -219 117 -249 -40 -19 -51 -47 -44 -106 19 -147 19 -152 0 -170 -13
-14 -27 -17 -57 -13 -22 3 -44 10 -50 16 -8 8 -2 8 21 0 32 -11 62 -7 62 9 0
8 -179 84 -210 89 -8 1 -32 20 -53 42 -38 41 -55 52 -41 29 4 -7 35 -44 68
-81 33 -37 61 -76 63 -85 2 -9 6 -38 9 -64 5 -42 3 -48 -20 -63 -20 -13 -37
-16 -73 -10 -76 11 -121 36 -231 128 -57 48 -108 87 -113 87 -13 0 194 -273
227 -299 15 -11 35 -21 44 -21 23 0 44 26 34 42 -5 10 -4 10 5 2 10 -9 7 -20
-12 -52 -31 -48 -66 -77 -114 -93 -33 -11 -37 -9 -69 22 -19 18 -34 30 -34 25
0 -10 113 -178 166 -247 61 -80 142 -214 214 -359 94 -186 126 -265 202 -490
118 -354 146 -541 155 -1056 l6 -341 61 -21 c41 -14 113 -24 221 -32 88 -7
219 -18 290 -25 72 -7 133 -10 138 -8 4 2 7 56 7 120 l0 116 63 -6 c34 -3 236
-18 449 -33 313 -22 391 -24 403 -14 64 53 -78 80 -425 79 -124 -1 -285 -4
-358 -8 -128 -6 -133 -5 -137 14 -2 11 -9 47 -16 80 -14 74 -81 271 -115 337
-14 28 -21 47 -16 44 5 -3 15 -20 22 -37 13 -30 15 -31 59 -24 189 26 994 215
919 215 -3 0 -54 -11 -114 -24 -275 -62 -573 -88 -779 -67 -66 7 -131 15 -145
18 -24 6 -24 5 -10 -14 8 -11 -3 -1 -24 21 -102 107 -264 329 -295 404 -12 28
-100 423 -96 429 1 2 37 11 81 20 63 14 127 18 309 18 243 0 291 -6 476 -60
72 -21 79 -21 93 -6 38 42 32 102 -15 155 -41 47 -96 78 -215 119 -130 45
-207 85 -432 220 -214 128 -237 145 -253 194 -27 83 10 280 85 455 27 63 31
78 18 78 -39 0 3 11 99 26 79 12 138 14 243 9 132 -6 138 -6 132 12 -5 16 -5
16 9 -1 19 -26 19 -13 0 25 -9 16 -20 27 -25 24 -5 -3 -12 0 -16 6 -5 8 -3 9
6 4 8 -5 11 -3 8 6 -3 8 -10 14 -16 14 -6 0 -17 7 -24 15 -11 12 -11 12 5 1
25 -19 21 2 -5 25 -13 12 -18 13 -13 4 8 -13 7 -13 -8 -1 -18 15 -23 26 -7 16
19 -12 10 12 -12 31 -22 19 -23 19 -8 -1 15 -20 14 -20 -8 -1 -23 20 -30 32
-12 21 6 -3 10 -2 10 2 0 14 -276 284 -283 277 -10 -10 54 179 64 191 5 5 -4
-31 -21 -80 -17 -49 -29 -93 -28 -97 2 -4 32 79 68 185 36 105 91 245 123 310
32 65 55 122 52 128 -4 5 -1 8 5 7 15 -4 141 241 136 264 -2 10 0 16 4 15 5
-1 25 24 44 57 26 43 31 56 18 51 -12 -4 -14 -3 -6 5 8 8 19 6 41 -6 30 -18
63 -14 63 7 0 8 -5 7 -17 -2 -14 -10 -13 -8 2 10 30 35 78 53 110 41 15 -6 57
-10 95 -10 74 0 129 22 234 96 48 34 36 19 -22 -26 -15 -12 -20 -18 -12 -14 8
4 35 23 59 43 48 38 67 45 78 29 3 -7 1 -8 -5 -4 -7 4 -12 2 -12 -3 0 -20 37
-11 49 12 l11 22 -6 -24 c-4 -16 -3 -21 5 -17 6 4 11 13 11 20 0 7 13 45 29
84 22 53 26 73 18 83 -7 7 2 3 18 -10 73 -54 76 -55 85 -42 5 10 9 10 11 2 3
-7 19 18 38 56 19 39 26 61 17 54 -14 -12 -16 -12 -10 2 3 9 13 18 22 21 38
10 88 20 95 18 5 -2 5 7 2 19 -6 18 -4 20 17 15 20 -6 21 -6 5 4 -10 7 -26 9
-35 5 -13 -5 -14 -3 -6 5 9 9 24 7 60 -5 41 -14 54 -14 92 -3 55 16 73 48 80
140 l5 68 41 2 c38 1 37 2 -14 8 l-55 7 53 1 c51 2 52 2 53 35 l2 32 7 -35 7
-35 2 31 c1 23 7 33 29 41 25 10 24 10 -13 7 l-40 -4 39 10 c21 6 50 16 65 24
14 8 34 17 44 20 9 3 17 11 17 17 0 8 -6 7 -17 -2 -16 -13 -17 -12 -4 3 7 10
17 15 22 12 11 -7 34 50 43 106 4 31 3 40 -4 30 -8 -13 -10 -12 -10 3 0 10 -6
20 -14 23 -9 3 -12 12 -9 21 5 12 3 14 -7 8 -9 -5 -11 -4 -6 4 4 6 11 9 16 6
5 -3 28 32 51 77 23 46 46 86 51 89 6 4 5 9 -3 12 -8 3 -9 6 -3 6 5 1 19 -6
30 -15 10 -8 13 -12 5 -8 -9 4 -12 3 -7 -4 9 -15 33 -5 33 13 0 8 -32 44 -71
82 l-71 68 60 -65 60 -65 -67 64 c-52 50 -65 68 -57 78 6 7 14 11 18 8 7 -4
111 108 111 119 0 3 -8 6 -17 6 -10 0 -54 21 -98 46 -44 25 -72 43 -62 40 11
-4 16 -2 12 5 -4 6 14 57 40 115 43 98 48 124 23 124 -5 0 -32 17 -59 38 -26
20 -68 52 -92 69 l-43 33 53 55 c29 30 53 63 53 74 0 10 -25 42 -55 69 -73 67
-75 95 -8 136 l47 28 -23 19 c-12 10 -33 26 -47 36 -17 13 -27 34 -34 73 -5
30 -24 101 -41 157 -27 84 -30 105 -19 118 29 35 76 8 119 -67 l29 -50 18 72
19 71 17 -38 c9 -21 22 -62 29 -91 7 -29 17 -51 22 -49 6 2 18 25 27 52 9 27
19 45 22 39 4 -5 16 -47 28 -94 12 -46 32 -110 46 -142 13 -31 24 -72 25 -90
1 -52 24 -174 31 -163 9 15 38 160 38 192 0 15 -9 42 -20 58 -13 20 -20 47
-20 82 0 40 -9 71 -40 135 -34 70 -40 89 -34 125 6 38 3 44 -33 80 l-39 38 10
50 11 50 94 -109 c52 -60 137 -175 189 -254 53 -80 98 -140 100 -134 2 6 -2
37 -7 68 -6 32 -10 74 -10 93 1 22 5 9 10 -33 5 -38 14 -83 19 -100 l10 -31
-5 30 c-2 17 -8 65 -11 107 -4 48 -11 75 -17 71 -6 -3 -7 -1 -3 6 4 6 11 9 15
7 4 -3 28 16 53 42 97 100 87 125 -50 130 -48 2 -91 8 -97 13 -19 19 23 40
109 54 49 8 93 18 98 23 6 6 -1 21 -19 39 -18 19 -21 21 -8 4 12 -15 1 -9 -27
15 l-46 39 46 5 c68 8 75 14 68 69 -4 25 -2 53 4 61 9 13 10 13 11 0 1 -24 29
72 29 101 0 15 -11 35 -27 50 -14 13 -23 18 -19 11 15 -25 -94 14 -110 39 -4
7 -3 9 3 6 7 -4 9 9 5 38 -5 51 2 55 42 24 15 -12 26 -17 25 -12 -3 19 2 34
10 29 4 -3 13 6 19 19 17 36 32 31 33 -12 l2 -38 6 40 7 40 4 -47 c3 -25 2
-44 -2 -41 -5 2 -8 0 -8 -4 0 -22 104 -102 116 -90 3 2 -9 10 -25 16 -16 7
-40 25 -53 39 l-23 27 25 -21 c14 -12 39 -29 57 -38 17 -9 35 -21 39 -27 4 -8
3 -9 -4 -5 -8 5 -12 -1 -12 -14 0 -28 -16 -58 -52 -96 l-30 -32 33 -4 c27 -4
39 1 76 35 44 41 88 120 79 144 -3 7 -9 13 -13 12 -20 -4 -74 15 -85 29 -10
12 -10 14 -1 8 10 -5 11 13 7 86 -7 93 -18 133 -33 123 -5 -2 -14 1 -20 9 -8
10 -8 16 2 25 8 6 16 8 20 5 8 -8 37 51 37 76 0 30 -23 71 -57 100 l-28 25 25
-30 25 -30 -33 29 c-32 30 -42 43 -20 30 8 -5 9 -2 4 12 -8 21 -23 98 -29 154
-3 19 -3 1 -2 -40 2 -55 1 -66 -5 -40 -12 52 -18 153 -9 138 6 -9 9 -8 9 6 0
21 -99 121 -109 110 -3 -3 3 -11 13 -18 10 -6 31 -21 45 -34 16 -14 8 -11 -22
8 -41 28 -46 35 -41 58 4 18 3 23 -4 14 -7 -11 -10 -10 -16 3 -3 9 -6 26 -5
38 1 20 2 20 10 -3 5 -16 6 -4 2 35 -8 82 -23 116 -73 156 -23 19 -61 50 -83
69 -22 19 -37 28 -32 20 8 -13 7 -13 -8 -1 -18 15 -23 26 -7 16 13 -8 12 -5
-1 33 -6 18 -14 30 -18 28 -4 -3 -5 10 -3 27 2 23 -5 44 -27 77 -28 42 -30 49
-25 110 6 67 -7 144 -28 156 -8 5 -9 2 -5 -9 9 -25 2 -21 -19 11 -15 23 -15
25 -1 13 33 -27 16 6 -20 40 -23 21 -30 25 -18 9 l20 -25 -28 24 c-28 25 -36
38 -16 25 8 -4 9 3 3 27 -10 42 -7 94 6 120 8 14 7 19 -2 19 -9 0 -9 3 2 10
19 11 60 2 80 -18 8 -8 9 -12 3 -8 -10 5 -13 -5 -12 -41 l2 -48 7 40 c5 29 7
16 6 -47 -1 -47 -4 -81 -8 -75 -5 8 -8 7 -8 -4 0 -28 70 -80 107 -78 10 0 0 7
-22 15 -22 8 -47 22 -55 31 -14 14 -13 14 10 0 14 -8 44 -20 66 -26 23 -6 48
-19 55 -29 12 -15 12 -15 -1 -5 -13 9 -15 3 -16 -45 -1 -37 1 -50 6 -37 5 13
7 0 6 -36 0 -31 -4 -55 -8 -52 -22 12 -4 -19 23 -41 24 -20 41 -26 80 -26 43
0 49 -3 49 -21 0 -13 4 -18 13 -13 7 4 9 3 4 -2 -5 -5 -14 -9 -19 -9 -6 0 -13
-6 -16 -14 -3 -9 0 -11 8 -6 9 5 11 4 6 -4 -4 -6 -11 -9 -16 -6 -12 8 -42 -43
-38 -67 2 -15 16 -25 51 -36 43 -14 53 -13 110 2 80 22 98 32 77 46 -8 5 -19
10 -25 10 -5 0 -4 -4 4 -9 24 -16 -94 -37 -125 -22 -24 10 -29 36 -8 36 15 0
34 15 34 27 0 6 -7 5 -17 -3 -10 -7 -7 -1 6 14 27 30 41 37 20 10 -11 -15 -10
-14 9 1 23 20 31 43 10 30 -7 -4 -8 -3 -4 5 4 6 11 9 16 6 10 -6 40 45 40 68
0 15 -34 50 -41 42 -7 -6 -141 15 -159 26 -10 6 -6 8 15 5 17 -2 22 -1 12 1
-13 3 -16 10 -11 25 5 16 3 19 -7 12 -12 -7 -12 -5 0 9 7 9 17 15 21 12 13 -8
50 45 50 71 0 23 -73 104 -93 104 -6 0 11 -18 37 -41 49 -44 59 -77 29 -100
-15 -11 -16 -11 -5 1 36 41 -14 101 -124 151 -35 16 -66 34 -70 40 -4 8 -3 9
4 5 8 -5 12 0 12 12 0 11 12 60 26 108 14 49 27 95 28 103 1 15 -9 18 -105 30
-70 9 -93 17 -84 30 2 5 -4 16 -15 26 -22 20 -28 7 -7 -14 9 -11 9 -12 0 -7
-7 4 -18 16 -24 28 -8 15 -8 19 1 13 14 -9 6 41 -22 135 -21 68 -77 141 -108
139 -10 0 -9 -3 5 -8 11 -5 29 -19 40 -32 l20 -24 -27 23 c-14 13 -45 26 -67
29 -49 7 -64 21 -18 16 27 -2 28 -1 8 5 -25 8 -34 33 -55 155 -4 21 -19 50
-34 65 -15 16 -20 19 -12 8 15 -19 14 -19 -10 -3 -13 9 -36 17 -50 18 -33 0
-96 22 -90 31 7 9 -41 59 -51 53 -4 -3 -11 0 -15 6 -4 8 -3 9 4 5 18 -11 15
-4 -21 60 -18 33 -38 59 -44 59 -6 0 -15 4 -20 9 -5 5 -3 6 5 2 18 -11 15 9
-5 25 -15 12 -16 12 -8 -1 5 -9 0 -8 -13 4 -25 21 -31 36 -7 16 8 -7 15 -8 15
-4 0 5 -42 50 -92 99 l-93 90 80 -85 80 -85 -88 85 c-83 80 -100 99 -77 85 13
-8 13 8 -1 39 -7 14 -16 23 -22 19 -6 -3 -7 -1 -3 5 10 17 -12 52 -32 52 -9 0
-26 7 -36 15 -27 21 -46 19 -108 -10 -54 -25 -102 -31 -126 -16 -8 4 -13 12
-12 17 1 5 -4 10 -11 13 -8 2 -9 -1 -4 -10 5 -8 -4 -3 -18 10 -26 24 -36 38
-19 27 11 -7 45 157 38 182 -9 27 -45 72 -58 72 -6 0 -2 -8 9 -17 10 -10 14
-15 7 -11 -6 5 -38 10 -72 12 -112 9 -197 42 -247 97 -29 32 -28 31 13 -4 23
-20 45 -37 49 -37 3 0 4 2 2 4 -2 2 -33 29 -68 59 -35 31 -67 54 -72 51 -5 -3
-26 0 -46 7 -20 6 -59 15 -87 19 -44 6 -46 8 -15 9 20 0 58 -6 84 -14 27 -8
51 -13 53 -11 2 2 -18 11 -45 19 -65 20 -357 21 -393 1 -16 -8 -19 -13 -9 -14
8 0 20 4 27 10 7 5 6 2 -2 -7 -14 -15 -19 -15 -74 5 -62 23 -71 25 -73 17z
m868 -906 c38 -12 113 -44 168 -72 151 -77 226 -168 288 -344 26 -77 31 -104
34 -223 3 -107 2 -131 -8 -115 -40 69 -133 125 -204 125 -22 0 -62 -6 -89 -13
-47 -12 -49 -14 -71 -75 -12 -34 -19 -62 -16 -62 4 0 29 7 55 16 35 12 71 15
136 12 75 -3 94 -8 130 -32 22 -15 43 -33 46 -41 3 -8 -3 -43 -13 -77 l-19
-63 -19 32 c-61 103 -247 73 -311 -49 -17 -33 -11 -35 23 -8 34 27 40 25 47
-13 9 -50 33 -77 66 -77 36 0 59 32 67 90 3 22 10 40 15 40 18 0 68 -58 68
-79 0 -26 -32 -47 -94 -61 -63 -14 -93 -7 -159 36 -38 26 -44 28 -22 9 53 -47
103 -65 184 -65 61 0 79 4 96 20 l21 20 37 -73 c45 -87 59 -157 48 -229 -32
-193 -155 -515 -259 -673 -81 -125 -150 -170 -295 -195 l-65 -12 -5 -46 c-5
-45 8 -231 17 -240 3 -2 0 -9 -5 -16 -6 -6 -59 -99 -118 -206 -101 -183 -110
-195 -137 -195 -23 0 -30 -6 -38 -30 -6 -16 -11 -32 -12 -33 -2 -2 -67 45
-146 105 -166 126 -291 244 -505 475 l-154 167 11 38 c8 26 22 45 42 56 24 14
29 22 23 40 -3 12 -9 33 -12 47 l-6 24 27 -18 c15 -10 30 -15 34 -12 8 8 -25
76 -37 76 -5 0 -18 18 -29 40 l-20 40 35 93 c48 126 52 159 20 190 -48 48 -40
77 21 77 31 0 34 2 27 23 -16 52 -16 74 0 91 11 11 24 14 34 10 9 -4 40 -8 69
-8 l54 -1 2 -47 c1 -29 10 -58 22 -75 34 -46 36 -63 14 -100 -26 -44 -25 -61
6 -139 30 -74 27 -88 -27 -150 -61 -71 -48 -130 40 -178 28 -15 51 -29 51 -32
0 -3 -17 -20 -37 -39 -44 -40 -39 -49 38 -85 l51 -24 -42 -21 c-55 -26 -105
-94 -96 -129 10 -40 23 -31 31 22 6 46 8 48 71 81 80 42 82 59 11 96 l-52 28
27 29 c42 46 38 80 -15 117 -75 51 -75 52 -23 122 52 69 56 95 26 160 -29 65
-26 101 10 127 34 25 39 64 15 96 -13 17 -13 22 3 39 13 15 17 37 17 96 -1 66
-5 83 -32 131 -45 80 -58 127 -41 147 19 24 13 140 -12 204 -11 30 -20 64 -20
76 0 27 46 83 68 83 12 0 13 -3 4 -12 -17 -17 -15 -39 8 -89 24 -53 26 -112 5
-129 -9 -7 -13 -15 -10 -18 8 -9 65 60 65 78 0 9 -5 31 -11 47 -7 21 -7 42 0
64 9 32 9 32 10 7 1 -17 16 -43 40 -69 37 -38 43 -41 88 -38 26 1 62 -3 78
-10 35 -15 142 -10 171 8 16 9 14 10 -11 4 -16 -5 -60 -8 -97 -8 l-67 0 -56
55 c-30 30 -55 57 -55 60 1 8 43 37 68 44 20 7 22 4 22 -29 0 -61 32 -105 75
-105 21 0 53 39 60 71 4 16 9 29 13 29 3 0 28 -21 55 -47 l48 -48 -17 40 c-50
121 -174 209 -267 190 -45 -10 -104 -50 -127 -88 l-20 -32 0 27 c0 18 -13 38
-43 65 -38 34 -42 41 -37 73 4 22 0 52 -12 83 -10 26 -18 66 -18 88 0 43 15
63 94 122 20 16 62 63 93 105 170 234 195 259 289 287 129 38 265 39 381 4z
m-992 -2809 c105 -96 225 -188 363 -280 l112 -75 -7 -100 c-4 -55 -8 -185 -8
-290 0 -244 2 -255 171 -885 49 -184 51 -312 6 -544 -17 -87 -33 -160 -35
-163 -2 -2 -22 22 -43 53 l-39 56 28 20 c17 12 32 38 42 71 20 68 19 89 -7
134 -16 27 -24 60 -28 113 l-5 75 -37 17 c-48 23 -53 44 -34 154 23 131 24
128 -38 165 l-54 33 19 38 c11 21 22 57 25 81 8 59 -8 71 -86 64 l-60 -5 46
54 c26 30 40 54 33 54 -36 1 -43 18 -44 102 l0 83 -37 3 c-21 2 -38 5 -38 7 0
3 7 23 16 45 l16 40 -31 35 c-37 42 -38 64 -10 115 32 57 22 70 -56 70 l-65 0
20 20 c26 26 25 29 -9 108 -16 37 -34 93 -41 124 l-11 57 -60 13 -59 12 0 56
c0 50 -4 60 -30 85 -20 19 -37 52 -50 95 -12 41 -34 82 -58 112 -22 25 -45 61
-53 80 -7 18 -44 84 -81 146 -37 62 -68 115 -68 117 0 3 69 -62 153 -144 83
-81 188 -181 232 -221z m885 -35 c34 -19 77 -19 88 1 5 9 14 14 19 11 15 -9
23 -56 32 -180 6 -72 14 -115 26 -133 l17 -26 31 53 c40 66 57 73 57 24 0 -95
75 -140 121 -72 12 17 24 34 25 36 2 2 21 -10 43 -25 34 -24 41 -36 47 -74 9
-59 23 -86 105 -195 59 -79 69 -98 69 -133 0 -48 23 -78 114 -151 84 -67 92
-87 66 -175 -17 -62 -18 -71 -4 -97 16 -32 49 -44 93 -36 38 8 60 -10 71 -56
8 -36 7 -38 -29 -57 -45 -23 -68 -47 -55 -60 5 -5 27 -16 49 -23 39 -14 40
-15 47 -73 4 -32 7 -138 8 -234 1 -161 -1 -181 -24 -255 -53 -172 -112 -332
-134 -367 -70 -112 -390 -351 -529 -395 -30 -9 -72 -33 -95 -52 -36 -31 -179
-197 -392 -456 -36 -44 -72 -88 -81 -97 -12 -15 -31 -18 -97 -18 -102 0 -218
24 -455 91 l-182 52 36 44 c35 42 42 46 93 47 21 1 27 9 38 46 7 25 20 60 28
79 l15 34 65 -7 c70 -7 91 -1 137 42 32 30 35 64 7 99 -23 29 -20 38 16 47 14
4 48 17 75 31 27 13 49 22 49 20 0 -8 -129 -353 -169 -454 -23 -57 -41 -107
-39 -112 3 -9 412 294 510 378 31 26 99 86 151 133 51 47 137 120 190 163 l97
79 55 -32 c66 -38 72 -27 9 16 l-45 31 90 67 c161 120 236 222 278 376 23 84
26 463 4 580 -19 105 -72 262 -121 360 -67 134 -192 337 -276 450 -96 128
-278 318 -396 412 -49 39 -88 72 -88 75 0 19 99 183 110 183 3 -1 16 -7 30
-15z m157 -557 c203 -253 344 -471 401 -621 33 -89 80 -271 103 -407 7 -41 13
-149 13 -240 1 -192 -13 -245 -90 -362 -45 -67 -228 -268 -245 -268 -8 0 -144
200 -152 225 -3 5 -8 7 -11 3 -12 -10 66 -169 103 -210 18 -21 30 -42 26 -48
-17 -27 -216 -181 -226 -174 -7 4 -9 3 -6 -3 4 -6 -60 -65 -141 -131 -81 -65
-211 -172 -289 -236 -79 -64 -143 -114 -143 -112 0 2 31 78 68 168 38 89 83
201 101 248 22 55 44 95 64 113 17 15 27 27 21 27 -5 0 -15 -5 -22 -12 -18
-18 -16 -9 33 123 102 277 130 412 122 583 -7 148 -30 264 -106 533 -126 442
-151 566 -151 742 l1 126 34 -131 c71 -275 175 -563 275 -764 95 -192 123
-301 123 -485 0 -184 -37 -316 -128 -464 -41 -67 -45 -78 -45 -139 0 -64 1
-66 43 -106 57 -55 146 -83 175 -54 19 19 15 47 -23 169 -37 120 -38 134 -10
234 l14 50 91 -3 c51 -2 90 1 90 6 0 5 -14 40 -31 78 -18 38 -46 107 -62 154
l-31 85 -6 625 c-7 662 -7 662 -56 748 -14 23 -23 42 -21 42 2 0 45 -51 94
-112z"/>
<path d="M6221 11363 c-55 -19 -121 -85 -156 -153 -33 -66 -28 -85 8 -31 43
64 108 101 178 101 60 0 161 -31 253 -77 27 -14 52 -21 56 -16 4 4 12 28 18
53 15 63 0 77 -127 119 -76 25 -166 26 -230 4z"/>
<path d="M8625 6890 c-71 -11 -174 -39 -210 -57 -64 -32 -135 -119 -118 -146
4 -7 -1 -5 -12 3 -16 13 -15 10 4 -28 12 -23 26 -40 30 -37 5 3 7 -3 4 -13 -5
-21 29 -67 60 -83 12 -6 7 1 -10 16 -18 15 -33 32 -33 38 0 7 8 2 18 -9 18
-23 53 -44 72 -44 6 0 2 16 -9 39 l-20 38 32 31 c45 44 114 71 209 84 137 18
258 -11 258 -61 0 -25 16 -36 18 -13 1 9 -1 59 -4 109 l-6 93 -61 19 c-78 23
-158 31 -222 21z"/>
<path d="M3084 5648 c-71 -59 -134 -117 -134 -125 0 -4 21 13 48 38 48 46 119
106 92 78 -8 -8 -80 -78 -160 -154 -80 -77 -107 -100 -60 -52 46 48 80 87 74
87 -5 0 -51 -45 -102 -99 -87 -94 -114 -130 -74 -100 9 7 4 -1 -12 -19 -34
-36 -49 -44 -20 -9 10 12 4 9 -14 -7 -33 -31 -45 -59 -14 -35 9 7 6 1 -7 -14
-27 -30 -41 -37 -20 -9 11 14 10 13 -9 -2 -23 -20 -31 -42 -9 -30 6 4 3 -2 -7
-14 -23 -26 -34 -29 -15 -4 11 14 10 13 -9 -2 -23 -20 -31 -42 -9 -30 8 5 8 2
-2 -9 -16 -20 -25 -23 -15 -4 4 6 -2 3 -14 -7 -26 -23 -30 -44 -4 -25 15 11
15 11 4 -1 -7 -8 -18 -15 -24 -15 -6 0 -13 -6 -16 -14 -3 -9 0 -11 9 -5 12 7
12 5 0 -9 -16 -20 -25 -22 -16 -4 4 6 -5 -1 -19 -16 -27 -29 -35 -53 -13 -41
7 4 9 3 4 -2 -5 -5 -13 -9 -19 -9 -11 0 -68 -99 -68 -118 0 -8 4 -6 11 3 9 13
10 13 6 0 -2 -8 -9 -15 -16 -15 -34 0 -136 -326 -170 -545 -6 -41 -15 -97 -20
-123 -4 -26 -4 -44 1 -39 4 4 13 46 19 92 5 47 13 87 16 90 3 3 2 -17 -1 -45
-9 -69 -25 -245 -26 -274 0 -40 14 -14 55 99 48 132 130 320 168 385 102 175
387 397 638 495 115 46 455 80 590 61 89 -14 109 -21 149 -55 l25 -21 -20 24
c-11 13 -101 92 -200 175 -250 210 -395 353 -448 439 -23 39 -49 71 -58 73 -9
1 -39 -16 -65 -38z"/>
<path d="M2684 3306 c-121 -38 -213 -163 -228 -309 -4 -43 -19 -37 169 -68
259 -42 632 -150 742 -216 124 -73 274 -224 415 -418 127 -175 166 -267 178
-425 l6 -85 29 90 c26 78 30 105 30 200 -1 98 -4 121 -34 210 -45 133 -138
326 -194 400 -172 228 -645 569 -860 620 -75 18 -197 18 -253 1z"/>
<path d="M1465 2468 c479 -511 787 -819 989 -987 112 -93 394 -309 696 -534
140 -104 272 -202 292 -218 20 -16 39 -25 43 -20 19 32 36 104 36 158 1 119
-51 184 -197 246 -476 204 -1158 705 -1811 1329 -51 48 -95 88 -99 88 -4 0 19
-28 51 -62z"/>
</g>
</svg>
